<svg width="25" height="25" viewBox="0 0 25 25" fill="none" xmlns="http://www.w3.org/2000/svg">
<path d="M15.0798 5.19853L21.7978 11.9804C21.9021 12.0854 21.9848 12.21 22.0409 12.347C22.097 12.4841 22.1256 12.6308 22.1249 12.7789C22.1242 12.9269 22.0942 13.0734 22.0368 13.2099C21.9794 13.3464 21.8956 13.4701 21.7902 13.5742L15.0083 20.2921C14.796 20.5025 14.5088 20.6198 14.2099 20.6184C13.911 20.617 13.6249 20.4969 13.4146 20.2846C13.2042 20.0722 13.0869 19.785 13.0883 19.4861C13.0897 19.1873 13.2098 18.9012 13.4221 18.6908L18.274 13.8847L4.49292 13.8194C4.19455 13.818 3.90897 13.6981 3.69899 13.4861C3.48902 13.2742 3.37185 12.9875 3.37326 12.6891C3.37467 12.3907 3.49455 12.1051 3.70653 11.8952C3.9185 11.6852 4.20521 11.568 4.50358 11.5694L18.2847 11.6347L13.4776 6.78284C13.2673 6.57049 13.1499 6.28329 13.1513 5.98441C13.1527 5.68552 13.2728 5.39945 13.4852 5.1891C13.6975 4.97876 13.9847 4.86139 14.2836 4.8628C14.5825 4.86422 14.8685 4.98431 15.0789 5.19666L15.0798 5.19853Z" fill="white"/>
</svg>
