<svg width="80" height="80" viewBox="0 0 80 80" fill="none" xmlns="http://www.w3.org/2000/svg">
<circle cx="40" cy="40" r="40" fill="#292A3D"/>
<path d="M38.75 43.3335C38.4185 43.3335 38.1005 43.2018 37.8661 42.9674C37.6317 42.733 37.5 42.415 37.5 42.0835C37.5 41.752 37.6317 41.434 37.8661 41.1996C38.1005 40.9652 38.4185 40.8335 38.75 40.8335C39.0815 40.8335 39.3995 40.9652 39.6339 41.1996C39.8683 41.434 40 41.752 40 42.0835C40 42.415 39.8683 42.733 39.6339 42.9674C39.3995 43.2018 39.0815 43.3335 38.75 43.3335Z" fill="#7CC68A" stroke="#7CC68A" stroke-width="0.5"/>
<path fill-rule="evenodd" clip-rule="evenodd" d="M27.8575 36.6667C28.0192 36.6667 28.1783 36.6533 28.3333 36.6267V43.3333H26.25C26.1395 43.3333 26.0335 43.3772 25.9554 43.4554C25.8772 43.5335 25.8333 43.6395 25.8333 43.75V44.5833C25.8333 44.6938 25.8772 44.7998 25.9554 44.878C26.0335 44.9561 26.1395 45 26.25 45H53.75C53.8605 45 53.9665 44.9561 54.0446 44.878C54.1228 44.7998 54.1667 44.6938 54.1667 44.5833V43.75C54.1667 43.6395 54.1228 43.5335 54.0446 43.4554C53.9665 43.3772 53.8605 43.3333 53.75 43.3333H51.6667V36.6267C51.8217 36.6533 51.9808 36.6667 52.1425 36.6667C53.7275 36.6667 55 35.3733 55 33.7925V31.8008C55.0001 31.5366 54.9541 31.2743 54.8642 31.0258L53.0475 26.0175C52.9397 25.7194 52.7427 25.4618 52.4832 25.2797C52.2238 25.0976 51.9145 25 51.5975 25H28.4017C28.0849 25.0004 27.7759 25.0983 27.5167 25.2805C27.2576 25.4627 27.0609 25.7204 26.9533 26.0183L25.1367 31.0258C25.0464 31.2743 25.0002 31.5365 25 31.8008V33.7925C25 35.3733 26.2725 36.6667 27.8575 36.6667ZM26.7033 31.5942L28.4908 26.6667H51.5083L53.2958 31.5942C53.3208 31.6608 53.3325 31.73 53.3325 31.8008V33.7925C53.3345 34.1105 53.2102 34.4162 52.9869 34.6426C52.7636 34.869 52.4596 34.9976 52.1417 35C51.4917 35 50.9517 34.4667 50.9517 33.7925C50.9517 33.5715 50.8639 33.3595 50.7076 33.2032C50.5513 33.047 50.3393 32.9592 50.1183 32.9592C49.8973 32.9592 49.6854 33.047 49.5291 33.2032C49.3728 33.3595 49.285 33.5715 49.285 33.7925C49.287 34.1105 49.1627 34.4162 48.9394 34.6426C48.7161 34.869 48.4121 34.9976 48.0942 35C47.4442 35 46.9042 34.4667 46.9042 33.7933C46.9042 33.5723 46.8164 33.3604 46.6601 33.2041C46.5038 33.0478 46.2918 32.96 46.0708 32.96C45.8498 32.96 45.6379 33.0478 45.4816 33.2041C45.3253 33.3604 45.2375 33.5723 45.2375 33.7933C45.2375 34.4667 44.6975 35 44.0467 35C43.3958 35 42.8567 34.4667 42.8567 33.7925C42.8567 33.5715 42.7689 33.3595 42.6126 33.2032C42.4563 33.047 42.2443 32.9592 42.0233 32.9592C41.8023 32.9592 41.5904 33.047 41.4341 33.2032C41.2778 33.3595 41.19 33.5715 41.19 33.7925C41.1922 34.1104 41.0681 34.4162 40.845 34.6426C40.6218 34.869 40.3179 34.9976 40 35C39.6822 34.9976 39.3783 34.8692 39.155 34.6429C38.9318 34.4167 38.8074 34.1112 38.8092 33.7933C38.8092 33.5723 38.7214 33.3604 38.5651 33.2041C38.4088 33.0478 38.1968 32.96 37.9758 32.96C37.7548 32.96 37.5429 33.0478 37.3866 33.2041C37.2303 33.3604 37.1425 33.5723 37.1425 33.7933C37.1425 34.4667 36.6033 35 35.9525 35C35.3017 35 34.7617 34.4667 34.7617 33.7925C34.7617 33.5715 34.6739 33.3595 34.5176 33.2032C34.3613 33.047 34.1493 32.9592 33.9283 32.9592C33.7073 32.9592 33.4954 33.047 33.3391 33.2032C33.1828 33.3595 33.095 33.5715 33.095 33.7925C33.095 34.4658 32.5558 35 31.905 35C31.2542 35 30.7142 34.4667 30.7142 33.7925C30.7142 33.5715 30.6264 33.3595 30.4701 33.2032C30.3138 33.047 30.1018 32.9592 29.8808 32.9592C29.6598 32.9592 29.4479 33.047 29.2916 33.2032C29.1353 33.3595 29.0475 33.5715 29.0475 33.7925C29.0475 34.4658 28.5083 35 27.8575 35C27.2058 35 26.6667 34.4667 26.6667 33.7925V31.8008C26.6667 31.7303 26.6791 31.6604 26.7033 31.5942ZM50 35.935C49.4779 36.407 48.7988 36.6678 48.095 36.6667C47.7185 36.6671 47.3458 36.5926 46.9984 36.4476C46.651 36.3025 46.336 36.0897 46.0717 35.8217C45.8073 36.0898 45.4921 36.3027 45.1446 36.4477C44.797 36.5928 44.4241 36.6672 44.0475 36.6667C43.671 36.6671 43.2983 36.5926 42.9509 36.4476C42.6035 36.3025 42.2885 36.0897 42.0242 35.8217C41.7598 36.0898 41.4446 36.3027 41.0971 36.4477C40.7495 36.5928 40.3766 36.6672 40 36.6667C39.6234 36.6672 39.2505 36.5928 38.9029 36.4477C38.5554 36.3027 38.2402 36.0898 37.9758 35.8217C37.7115 36.0897 37.3965 36.3025 37.0491 36.4476C36.7017 36.5926 36.329 36.6671 35.9525 36.6667C35.16 36.6667 34.4442 36.3425 33.9283 35.8217C33.664 36.0897 33.349 36.3025 33.0016 36.4476C32.6542 36.5926 32.2815 36.6671 31.905 36.6667C31.1717 36.6667 30.505 36.3892 30 35.935V43.3333H32.0833C31.9728 43.3333 31.8668 43.2894 31.7887 43.2113C31.7106 43.1332 31.6667 43.0272 31.6667 42.9167V41.25C31.6667 41.1395 31.7106 41.0335 31.7887 40.9554C31.8668 40.8772 31.9728 40.8333 32.0833 40.8333H34.5833C34.6938 40.8333 34.7998 40.8772 34.878 40.9554C34.9561 41.0335 35 41.1395 35 41.25V41.6667H36.25C36.3605 41.6667 36.4665 41.7106 36.5446 41.7887C36.6228 41.8668 36.6667 41.9728 36.6667 42.0833V42.9167C36.6667 43.0272 36.6228 43.1332 36.5446 43.2113C36.4665 43.2894 36.3605 43.3333 36.25 43.3333H50V35.935ZM26.6667 47.5C26.6667 47.279 26.7545 47.067 26.9107 46.9107C27.067 46.7545 27.279 46.6667 27.5 46.6667H52.5C52.721 46.6667 52.933 46.7545 53.0893 46.9107C53.2455 47.067 53.3333 47.279 53.3333 47.5V54.1667C53.3333 54.3877 53.2455 54.5996 53.0893 54.7559C52.933 54.9122 52.721 55 52.5 55H27.5C27.279 55 27.067 54.9122 26.9107 54.7559C26.7545 54.5996 26.6667 54.3877 26.6667 54.1667V47.5ZM28.3333 53.3333V48.3333H51.6667V53.3333H28.3333Z" fill="#7CC68A" stroke="#7CC68A" stroke-width="0.5"/>
</svg>
