<svg width="81" height="80" viewBox="0 0 81 80" fill="none" xmlns="http://www.w3.org/2000/svg">
<circle cx="40.5" cy="40" r="40" fill="#292A3D"/>
<path d="M38.7557 38.5443C37.2174 38.5443 35.7137 38.0882 34.4346 37.2335C33.1556 36.3789 32.1587 35.1642 31.57 33.743C30.9813 32.3218 30.8273 30.7579 31.1274 29.2492C31.4275 27.7404 32.1683 26.3546 33.256 25.2668C34.3437 24.1791 35.7296 23.4383 37.2383 23.1382C38.7471 22.8381 40.3109 22.9921 41.7321 23.5808C43.1533 24.1695 44.3681 25.1664 45.2227 26.4454C46.0773 27.7245 46.5335 29.2283 46.5335 30.7666C46.5335 32.8293 45.714 34.8077 44.2554 36.2663C42.7968 37.7249 40.8185 38.5443 38.7557 38.5443ZM38.7557 25.2999C37.6569 25.2999 36.5828 25.6257 35.6692 26.2362C34.7556 26.8466 34.0435 27.7143 33.6231 28.7294C33.2026 29.7446 33.0925 30.8616 33.3069 31.9393C33.5213 33.0169 34.0504 34.0069 34.8273 34.7838C35.6043 35.5608 36.5942 36.0899 37.6719 36.3042C38.7496 36.5186 39.8666 36.4086 40.8817 35.9881C41.8969 35.5676 42.7645 34.8555 43.375 33.9419C43.9854 33.0283 44.3113 31.9542 44.3113 30.8554C44.3113 30.1259 44.1676 29.4035 43.8884 28.7294C43.6092 28.0554 43.2 27.443 42.6841 26.9271C42.1682 26.4112 41.5558 26.002 40.8817 25.7228C40.2077 25.4436 39.4853 25.2999 38.7557 25.2999ZM44.9446 39.8888C38.9317 38.5358 32.6413 39.1874 27.0335 41.7443C26.2623 42.1127 25.6116 42.6926 25.1572 43.4165C24.7028 44.1404 24.4634 44.9785 24.4668 45.8332V52.4443C24.4668 52.5902 24.4956 52.7347 24.5514 52.8695C24.6073 53.0043 24.6891 53.1268 24.7923 53.23C24.8954 53.3332 25.0179 53.415 25.1527 53.4709C25.2875 53.5267 25.432 53.5554 25.5779 53.5554C25.7239 53.5554 25.8683 53.5267 26.0031 53.4709C26.138 53.415 26.2604 53.3332 26.3636 53.23C26.4668 53.1268 26.5486 53.0043 26.6045 52.8695C26.6603 52.7347 26.6891 52.5902 26.6891 52.4443V45.8332C26.6794 45.4007 26.7962 44.9747 27.0251 44.6076C27.2541 44.2405 27.5852 43.9482 27.9779 43.7666C31.356 42.2068 35.035 41.4065 38.7557 41.4221C40.8405 41.4195 42.9182 41.6656 44.9446 42.1554V39.8888ZM45.1002 50.4554H51.9224V52.011H45.1002V50.4554Z" fill="#8DE29E" stroke="#8DE29E"/>
<path d="M57.3551 43.8553H51.6107V46.0775H56.244V55.3775H40.4996V46.0775H47.4996V46.5442C47.4996 46.8389 47.6166 47.1215 47.825 47.3298C48.0334 47.5382 48.316 47.6553 48.6107 47.6553C48.9054 47.6553 49.188 47.5382 49.3964 47.3298C49.6047 47.1215 49.7218 46.8389 49.7218 46.5442V42.222C49.7218 41.9273 49.6047 41.6446 49.3964 41.4363C49.188 41.2279 48.9054 41.1108 48.6107 41.1108C48.316 41.1108 48.0334 41.2279 47.825 41.4363C47.6166 41.6446 47.4996 41.9273 47.4996 42.222V43.8553H39.3885C39.0938 43.8553 38.8112 43.9723 38.6028 44.1807C38.3944 44.3891 38.2773 44.6717 38.2773 44.9664V56.4886C38.2773 56.7833 38.3944 57.0659 38.6028 57.2743C38.8112 57.4827 39.0938 57.5997 39.3885 57.5997H57.3551C57.6498 57.5997 57.9324 57.4827 58.1408 57.2743C58.3492 57.0659 58.4662 56.7833 58.4662 56.4886V44.9664C58.4662 44.6717 58.3492 44.3891 58.1408 44.1807C57.9324 43.9723 57.6498 43.8553 57.3551 43.8553Z" fill="#8DE29E"/>
</svg>
