<svg width="81" height="80" viewBox="0 0 81 80" fill="none" xmlns="http://www.w3.org/2000/svg">
<circle cx="40.5" cy="40" r="40" fill="#292A3D"/>
<path d="M46.8333 53.2082L39.75 46.1248L42.0833 43.7915L46.8333 48.5415L56.25 39.1248L58.5833 41.4582L46.8333 53.2082ZM56 36.6665H52.6667V28.3332H49.3333V33.3332H32.6667V28.3332H29.3333V51.6665H39.3333V54.9998H29.3333C28.4167 54.9998 27.6317 54.6732 26.9783 54.0198C26.325 53.3665 25.9989 52.5821 26 51.6665V28.3332C26 27.4165 26.3267 26.6315 26.98 25.9782C27.6333 25.3248 28.4178 24.9987 29.3333 24.9998H36.2917C36.5972 24.0276 37.1944 23.2287 38.0833 22.6032C38.9722 21.9776 39.9444 21.6654 41 21.6665C42.1111 21.6665 43.1044 21.9793 43.98 22.6048C44.8556 23.2304 45.4456 24.0287 45.75 24.9998H52.6667C53.5833 24.9998 54.3683 25.3265 55.0217 25.9798C55.675 26.6332 56.0011 27.4176 56 28.3332V36.6665ZM41 28.3332C41.4722 28.3332 41.8683 28.1732 42.1883 27.8532C42.5083 27.5332 42.6678 27.1376 42.6667 26.6665C42.6667 26.1943 42.5067 25.7982 42.1867 25.4782C41.8667 25.1582 41.4711 24.9987 41 24.9998C40.5278 24.9998 40.1317 25.1598 39.8117 25.4798C39.4917 25.7998 39.3322 26.1954 39.3333 26.6665C39.3333 27.1387 39.4933 27.5348 39.8133 27.8548C40.1333 28.1748 40.5289 28.3343 41 28.3332Z" fill="#7CC68A"/>
</svg>
