<svg width="81" height="80" viewBox="0 0 81 80" fill="none" xmlns="http://www.w3.org/2000/svg">
<circle cx="40.5" cy="40" r="40" fill="#292A3D"/>
<path d="M38.4588 51.8409C36.8679 51.8409 35.5005 51.553 34.3565 50.9773C33.2126 50.4015 32.33 49.625 31.7088 48.6477C31.0952 47.6629 30.7884 46.553 30.7884 45.3182C30.7884 44.3864 30.9777 43.5606 31.3565 42.8409C31.7429 42.1212 32.2732 41.4545 32.9474 40.8409C33.6293 40.2273 34.4171 39.6174 35.3111 39.0114L39.4361 36.2045C40.0421 35.8106 40.5005 35.3939 40.8111 34.9545C41.1293 34.5152 41.2884 34 41.2884 33.4091C41.2884 32.9091 41.0762 32.4356 40.652 31.9886C40.2353 31.5417 39.6596 31.3182 38.9247 31.3182C38.4323 31.3182 37.9967 31.4356 37.6179 31.6705C37.2467 31.8977 36.955 32.197 36.7429 32.5682C36.5384 32.9394 36.4361 33.3333 36.4361 33.75C36.4361 34.2576 36.5762 34.7727 36.8565 35.2955C37.1444 35.8182 37.5156 36.3598 37.9702 36.9205C38.4323 37.4811 38.9247 38.0758 39.4474 38.7045L50.3679 51.5H45.9134L36.8452 41.1136C36.1709 40.3258 35.5194 39.5492 34.8906 38.7841C34.2694 38.0189 33.758 37.2235 33.3565 36.3977C32.9626 35.5644 32.7656 34.6629 32.7656 33.6932C32.7656 32.5947 33.0194 31.6136 33.527 30.75C34.0346 29.8788 34.7429 29.1932 35.652 28.6932C36.5687 28.1932 37.6406 27.9432 38.8679 27.9432C40.0952 27.9432 41.1482 28.1856 42.027 28.6705C42.9058 29.1553 43.5838 29.7992 44.0611 30.6023C44.5384 31.4053 44.777 32.2803 44.777 33.2273C44.777 34.3258 44.5043 35.3106 43.9588 36.1818C43.4134 37.0455 42.6558 37.8295 41.6861 38.5341L36.9815 41.9773C36.2088 42.5379 35.6558 43.1061 35.3224 43.6818C34.9891 44.25 34.8224 44.7348 34.8224 45.1364C34.8224 45.75 34.9777 46.3068 35.2884 46.8068C35.599 47.3068 36.0346 47.7083 36.5952 48.0114C37.1634 48.3068 37.8262 48.4545 38.5838 48.4545C39.4171 48.4545 40.2391 48.2689 41.0497 47.8977C41.8603 47.5189 42.599 46.9811 43.2656 46.2841C43.9323 45.5871 44.4626 44.7538 44.8565 43.7841C45.2505 42.8068 45.4474 41.7235 45.4474 40.5341H48.9815C48.9815 42.0038 48.8187 43.2841 48.4929 44.375C48.1671 45.4583 47.7467 46.375 47.2315 47.125C46.7164 47.8674 46.1709 48.4621 45.5952 48.9091C45.4134 49.0379 45.2391 49.1667 45.0724 49.2955C44.9058 49.4242 44.7315 49.553 44.5497 49.6818C43.7315 50.4242 42.7732 50.9697 41.6747 51.3182C40.5838 51.6667 39.5118 51.8409 38.4588 51.8409Z" fill="#8DE29E"/>
</svg>
