<svg width="80" height="80" viewBox="0 0 80 80" fill="none" xmlns="http://www.w3.org/2000/svg">
<circle cx="40" cy="40" r="40" fill="#292A3D"/>
<path d="M30.4545 27.2727H48.6364V30.9091H52.2727V23.6364C52.2727 21.6364 50.6364 20.0182 48.6364 20.0182L30.4545 20C28.4545 20 26.8182 21.6364 26.8182 23.6364V30.9091H30.4545V27.2727ZM45.7455 48.3455L54.0909 40L45.7455 31.6545L43.1818 34.2364L48.9455 40L43.1818 45.7636L45.7455 48.3455ZM35.9091 45.7636L30.1455 40L35.9091 34.2364L33.3455 31.6545L25 40L33.3455 48.3455L35.9091 45.7636ZM48.6364 52.7273H30.4545V49.0909H26.8182V56.3636C26.8182 58.3636 28.4545 60 30.4545 60H48.6364C50.6364 60 52.2727 58.3636 52.2727 56.3636V49.0909H48.6364V52.7273Z" fill="#8DE29E"/>
</svg>
